<svg width="41" height="40" viewBox="0 0 41 40" fill="none" xmlns="http://www.w3.org/2000/svg">
<path d="M38.1572 6.16836L6.66372 37.6618C5.42129 38.9043 3.53694 39.0341 2.45489 37.9521C1.37284 36.87 1.50272 34.9857 2.74515 33.7432L34.2387 2.24972C35.481 1.00736 37.3655 0.877398 38.4475 1.95945C39.5295 3.04158 39.3996 4.92593 38.1572 6.16836Z" fill="#680003"/>
<path d="M6.16824 2.24968L37.6617 33.7431C38.9041 34.9856 39.034 36.8699 37.952 37.952C36.8699 39.034 34.9856 38.9041 33.7431 37.6617L2.24959 6.16817C1.00724 4.92582 0.877276 3.04139 1.95933 1.95934C3.04146 0.877363 4.92581 1.00725 6.16824 2.24968Z" fill="#680003"/>
</svg>
