<svg width="41" height="40" viewBox="0 0 41 40" fill="none" xmlns="http://www.w3.org/2000/svg">
<path d="M38.1567 6.16824L6.66324 37.6617C5.4208 38.9041 3.53646 39.034 2.4544 37.952C1.37235 36.8699 1.50223 34.9856 2.74467 33.7431L34.2382 2.24959C35.4806 1.00724 37.365 0.877276 38.447 1.95933C39.529 3.04146 39.3991 4.92581 38.1567 6.16824Z" fill="black"/>
<path d="M6.16824 2.24956L37.6617 33.743C38.9041 34.9854 39.034 36.8698 37.952 37.9518C36.8699 39.0339 34.9856 38.904 33.7431 37.6616L2.24959 6.16805C1.00724 4.92569 0.877276 3.04127 1.95933 1.95922C3.04146 0.877241 4.92581 1.00712 6.16824 2.24956Z" fill="black"/>
</svg>
