<svg width="51" height="34" viewBox="0 0 51 34" fill="none" xmlns="http://www.w3.org/2000/svg">
<path d="M47.8184 33.2497H3.27998C1.52291 33.2497 0.0986328 32.0091 0.0986328 30.4789C0.0986328 28.9486 1.52291 27.708 3.27998 27.708H47.8186C49.5755 27.708 50.9999 28.9486 50.9999 30.4789C50.9998 32.0091 49.5755 33.2497 47.8184 33.2497Z" fill="black"/>
<path d="M47.8184 19.3961H3.27998C1.52291 19.3961 0.0986328 18.1556 0.0986328 16.6253C0.0986328 15.0951 1.52291 13.8545 3.27998 13.8545H47.8186C49.5755 13.8545 50.9999 15.095 50.9999 16.6253C50.9999 18.1557 49.5755 19.3961 47.8184 19.3961Z" fill="black"/>
<path d="M47.8184 5.54169H3.27998C1.52291 5.54169 0.0986328 4.3012 0.0986328 2.77085C0.0986328 1.2405 1.52291 0 3.27998 0H47.8186C49.5755 0 50.9999 1.2405 50.9999 2.77085C50.9999 4.3012 49.5755 5.54169 47.8184 5.54169Z" fill="black"/>
</svg>
